<svg xmlns="http://www.w3.org/2000/svg" viewBox="0 0 220 220" fill="none">
  <rect width="220" height="220" rx="48" fill="#0D1918"/>
  <path d="M71 132c0-26.51 21.49-48 48-48h5.95c13.62 0 24.93 10.86 25.5 24.47l.95 22.53h12.1c5.25 0 9.5 4.25 9.5 9.5S168.75 150 163.5 150h-13.27c-8.73 0-15.93-6.84-16.36-15.56l-.7-14.36c-.17-3.5-3.06-6.25-6.57-6.25H119c-16.57 0-30 13.43-30 30V150H71v-18Z" fill="#fff"/>
  <path d="M108.42 87.31 146.19 44l6.32 6.03-28.78 42.4-15.31-5.12Z" fill="#89FFF0"/>
  <path d="m101 82 18 5-15 15-9-8 6-12Z" fill="#fff"/>
  <circle cx="136.5" cy="107.5" r="4.5" fill="#0D1918"/>
  <path d="M77 150c7.6 12.54 19.94 20 37 20 11.58 0 21.64-3.36 30.18-10.08" stroke="#89FFF0" stroke-width="10" stroke-linecap="round"/>
</svg>
